<svg width="55" height="45" viewBox="0 0 55 45" fill="none" xmlns="http://www.w3.org/2000/svg">
<path d="M0 0V16.3636H5V20.4545H10V16.3636H20V0H0ZM20 16.3636V20.4545H25V24.5455H15V28.6364H0V45H20V28.6364H35V24.5455H30V20.4545H40V16.3636H45V20.4545H50V16.3636H55V0H35V16.3636H20ZM50 20.4545V24.5455H55V20.4545H50ZM50 24.5455H45V28.6364H50V24.5455ZM50 28.6364V32.7273H55V28.6364H50ZM50 32.7273H45V28.6364H40V32.7273H27.5V45H32.5V36.8182H42.5V40.9091H47.5V36.8182H50V32.7273ZM42.5 40.9091H37.5V45H42.5V40.9091ZM45 24.5455V20.4545H40V24.5455H45ZM15 24.5455V20.4545H10V24.5455H15ZM5 20.4545H0V24.5455H5V20.4545ZM25 0V8.18182H22.5V12.2727H25V14.3182H30V8.18182H32.5V4.09091H30V0H25ZM5 4.09091H15V12.2727H5V4.09091ZM40 4.09091H50V12.2727H40V4.09091ZM7.5 6.13636V10.2273H12.5V6.13636H7.5ZM42.5 6.13636V10.2273H47.5V6.13636H42.5ZM5 32.7273H15V40.9091H5V32.7273ZM7.5 34.7727V38.8636H12.5V34.7727H7.5ZM50 40.9091V45H55V40.9091H50Z" fill="#EAF4FC"/>
</svg>
